<svg id="Layer_1" enable-background="new 0 0 512 512" height="512" viewBox="0 0 512 512" width="512" xmlns="http://www.w3.org/2000/svg"><g><g><g><path d="m355.966 512h-282.124v-512h364.316v429.807z" fill="#ebf7ff"/><path d="m396.951 0v429.807l.056 41.152 41.151-41.152v-429.807z" fill="#d9edfa"/><path d="m355.966 512v-82.193h82.192z" fill="#b5c8ff"/></g></g><path d="m438.158 126.053-182.158 65.569-182.158-65.569v-126.053h364.316z" fill="#ffca21"/><g><path d="m396.951 0v140.886l41.207-14.833v-126.053z" fill="#f2bb0c"/></g><g fill="#fff"><path d="m354.412 39.157h-13.83c-4.268 0-7.726 3.459-7.726 7.726s3.459 7.726 7.726 7.726h6.104v56.976c0 4.267 3.459 7.726 7.726 7.726s7.726-3.459 7.726-7.726v-64.702c.001-4.267-3.458-7.726-7.726-7.726z"/><path d="m193.134 104.029c-.033 0-.066 0-.099.001-6.238.078-12.846.131-18.426.145 3.558-4.77 8.424-11.434 14.91-20.702 4.164-5.949 6.881-11.578 8.076-16.732.058-.253.104-.508.137-.766l.32-2.503c.041-.324.062-.652.062-.979 0-13.389-10.893-24.283-24.283-24.283-11.576 0-21.597 8.236-23.827 19.583-.823 4.187 1.904 8.248 6.092 9.071 4.189.822 8.248-1.905 9.071-6.092.81-4.12 4.454-7.111 8.664-7.111 4.729 0 8.603 3.737 8.82 8.414l-.193 1.517c-.799 3.145-2.681 6.85-5.6 11.019-10.245 14.64-16.358 22.643-19.642 26.943-4.011 5.252-6.024 7.887-4.714 12.146.773 2.511 2.672 4.437 5.214 5.284 1.011.337 1.982.66 14.729.66 4.935 0 11.633-.049 20.781-.163 4.268-.054 7.683-3.556 7.629-7.823-.05-4.233-3.499-7.629-7.721-7.629z"/><path d="m315.756 104.029c-.033 0-.066 0-.099.001-6.238.078-12.846.131-18.426.145 3.558-4.77 8.425-11.434 14.911-20.703 4.164-5.95 6.88-11.579 8.075-16.731.058-.253.104-.508.137-.766l.32-2.503c.041-.324.062-.652.062-.979 0-13.389-10.892-24.283-24.282-24.283-11.577 0-21.599 8.236-23.827 19.585-.822 4.187 1.905 8.248 6.093 9.07 4.199.822 8.25-1.906 9.07-6.093.809-4.12 4.453-7.11 8.664-7.11 4.729 0 8.602 3.737 8.819 8.414l-.193 1.517c-.799 3.144-2.681 6.85-5.599 11.019-10.243 14.636-16.356 22.64-19.64 26.94-4.013 5.254-6.026 7.89-4.716 12.149.773 2.511 2.672 4.437 5.212 5.284 1.012.337 1.981.66 14.734.66 4.934 0 11.633-.048 20.777-.163 4.268-.054 7.683-3.556 7.629-7.823-.05-4.234-3.499-7.63-7.721-7.63z"/><path d="m236.671 37.837c-14.577 0-26.437 11.86-26.437 26.437v29.923c0 14.577 11.859 26.437 26.437 26.437 14.577 0 26.437-11.86 26.437-26.437v-29.924c0-14.577-11.86-26.436-26.437-26.436zm10.984 56.359c0 6.056-4.928 10.984-10.984 10.984s-10.984-4.928-10.984-10.984v-29.923c0-6.056 4.928-10.984 10.984-10.984s10.984 4.928 10.984 10.984z"/></g><g><circle cx="139.975" cy="251.003" fill="#ffca21" r="14.227"/></g><g><circle cx="139.975" cy="313.337" fill="#ffca21" r="14.227"/></g><g><circle cx="139.975" cy="375.671" fill="#ffca21" r="14.227"/></g><g><g><circle cx="139.975" cy="438.005" fill="#ffca21" r="14.227"/></g><g fill="#b5c8ff"><path d="m185.646 258.119h198.183c4.268 0 7.726-3.459 7.726-7.726s-3.459-7.726-7.726-7.726h-198.183c-4.268 0-7.726 3.459-7.726 7.726s3.458 7.726 7.726 7.726z"/><path d="m383.829 305h-198.183c-4.268 0-7.726 3.459-7.726 7.726s3.459 7.726 7.726 7.726h198.183c4.268 0 7.726-3.459 7.726-7.726s-3.458-7.726-7.726-7.726z"/><path d="m383.829 367.334h-198.183c-4.268 0-7.726 3.459-7.726 7.726s3.459 7.726 7.726 7.726h198.183c4.268 0 7.726-3.459 7.726-7.726s-3.458-7.726-7.726-7.726z"/><path d="m309.569 429.668h-123.923c-4.268 0-7.726 3.459-7.726 7.726s3.459 7.726 7.726 7.726h123.924c4.268 0 7.726-3.459 7.726-7.726s-3.459-7.726-7.727-7.726z"/></g></g></g></svg>